# xmcd CD database file
#
# Track frame offsets:
#	150
#	21843
#	46254
#	73385
#	94551
#	108869
#	131460
#	147292
#	166374
#	181903
#	206425
#	227865
#
# Disc length: 3355 seconds
#
# Revision: 1
# Processed by: cddbd v1.5.1PL0 Copyright (c) Steve Scherf et al.
# Submitted via: CDex 1.60beta1
#
DISCID=a10d190c
DTITLE=Various Artist - Cafe Lounge Iced Brazilian Tea
DYEAR=2004
DGENRE=Jazz
TTITLE0=Don't Break It
TTITLE1=Peter Pan Syndrome
TTITLE2=Bitches And Friends
TTITLE3=Bossa Rouge
TTITLE4=Segundo
TTITLE5=Bossa, No.5
TTITLE6=Fancy
TTITLE7=Frenetic
TTITLE8=It's Impossible
TTITLE9=Beach Day
TTITLE10=I Remember
TTITLE11=Point Of View
EXTD=YEAR: 2004
EXTT0=
EXTT1=
EXTT2=
EXTT3=
EXTT4=
EXTT5=
EXTT6=
EXTT7=
EXTT8=
EXTT9=
EXTT10=
EXTT11=
PLAYORDER=
